<mxfile host="65bd71144e">
    <diagram id="M8LPshodvVsHo5_ncubV" name="Page-1">
        <mxGraphModel dx="1425" dy="754" grid="1" gridSize="10" guides="1" tooltips="1" connect="1" arrows="1" fold="1" page="1" pageScale="1" pageWidth="827" pageHeight="1169" background="#99CCFF" math="0" shadow="0">
            <root>
                <mxCell id="0"/>
                <mxCell id="1" parent="0"/>
                <mxCell id="2" value="" style="shape=table;startSize=0;container=1;collapsible=0;childLayout=tableLayout;align=center;fontColor=#000000;fontSize=12;rounded=0;movable=1;resizable=1;rotatable=1;deletable=1;editable=1;connectable=1;locked=0;verticalAlign=middle;labelBackgroundColor=#FFFFFF;fontFamily=Verdana;" vertex="1" parent="1">
                    <mxGeometry x="920" y="80" width="160" height="130" as="geometry"/>
                </mxCell>
                <mxCell id="3" value="" style="shape=tableRow;horizontal=0;startSize=0;swimlaneHead=0;swimlaneBody=0;top=0;left=0;bottom=0;right=0;collapsible=0;dropTarget=0;fillColor=none;points=[[0,0.5],[1,0.5]];portConstraint=eastwest;fontColor=#000000;fontSize=12;align=center;rounded=0;movable=1;resizable=1;rotatable=1;deletable=1;editable=1;connectable=1;locked=0;verticalAlign=middle;labelBackgroundColor=#FFFFFF;fontFamily=Verdana;" vertex="1" parent="2">
                    <mxGeometry width="160" height="33" as="geometry"/>
                </mxCell>
                <mxCell id="4" value="&lt;font style=&quot;font-size: 12px;&quot;&gt;User&lt;/font&gt;" style="shape=partialRectangle;html=1;whiteSpace=wrap;connectable=1;overflow=hidden;fillColor=none;top=0;left=0;bottom=0;right=0;pointerEvents=1;rowspan=1;colspan=2;align=center;fontColor=#000000;fontSize=12;rounded=0;movable=1;resizable=1;rotatable=1;deletable=1;editable=1;locked=0;verticalAlign=middle;labelBackgroundColor=#FFFFFF;fontFamily=Verdana;" vertex="1" parent="3">
                    <mxGeometry width="160" height="33" as="geometry">
                        <mxRectangle width="80" height="33" as="alternateBounds"/>
                    </mxGeometry>
                </mxCell>
                <mxCell id="5" value="" style="shape=partialRectangle;html=1;whiteSpace=wrap;connectable=0;overflow=hidden;fillColor=none;top=0;left=0;bottom=0;right=0;pointerEvents=1;align=left;fontColor=#FFFFFF;rounded=0;" vertex="1" visible="0" parent="3">
                    <mxGeometry x="80" width="80" height="33" as="geometry">
                        <mxRectangle width="80" height="33" as="alternateBounds"/>
                    </mxGeometry>
                </mxCell>
                <mxCell id="6" value="" style="shape=tableRow;horizontal=0;startSize=0;swimlaneHead=0;swimlaneBody=0;top=0;left=0;bottom=0;right=0;collapsible=0;dropTarget=0;fillColor=none;points=[[0,0.5],[1,0.5]];portConstraint=eastwest;fontColor=#000000;fontSize=12;align=center;rounded=0;movable=1;resizable=1;rotatable=1;deletable=1;editable=1;connectable=1;locked=0;verticalAlign=middle;labelBackgroundColor=#FFFFFF;fontFamily=Verdana;" vertex="1" parent="2">
                    <mxGeometry y="33" width="160" height="32" as="geometry"/>
                </mxCell>
                <mxCell id="7" value="id" style="shape=partialRectangle;html=1;whiteSpace=wrap;connectable=1;overflow=hidden;fillColor=none;top=0;left=0;bottom=0;right=0;pointerEvents=1;align=center;fontColor=#000000;fontSize=12;rounded=0;movable=1;resizable=1;rotatable=1;deletable=1;editable=1;locked=0;verticalAlign=middle;labelBackgroundColor=#FFFFFF;fontFamily=Verdana;" vertex="1" parent="6">
                    <mxGeometry width="80" height="32" as="geometry">
                        <mxRectangle width="80" height="32" as="alternateBounds"/>
                    </mxGeometry>
                </mxCell>
                <mxCell id="8" value="BigAuto" style="shape=partialRectangle;html=1;whiteSpace=wrap;connectable=1;overflow=hidden;fillColor=none;top=0;left=0;bottom=0;right=0;pointerEvents=1;align=center;fontColor=#000000;fontSize=12;rounded=0;movable=1;resizable=1;rotatable=1;deletable=1;editable=1;locked=0;verticalAlign=middle;labelBackgroundColor=#FFFFFF;fontFamily=Verdana;" vertex="1" parent="6">
                    <mxGeometry x="80" width="80" height="32" as="geometry">
                        <mxRectangle width="80" height="32" as="alternateBounds"/>
                    </mxGeometry>
                </mxCell>
                <mxCell id="9" value="" style="shape=tableRow;horizontal=0;startSize=0;swimlaneHead=0;swimlaneBody=0;top=0;left=0;bottom=0;right=0;collapsible=0;dropTarget=0;fillColor=none;points=[[0,0.5],[1,0.5]];portConstraint=eastwest;fontColor=#000000;fontSize=12;align=center;rounded=0;movable=1;resizable=1;rotatable=1;deletable=1;editable=1;connectable=1;locked=0;verticalAlign=middle;labelBackgroundColor=#FFFFFF;fontFamily=Verdana;" vertex="1" parent="2">
                    <mxGeometry y="65" width="160" height="33" as="geometry"/>
                </mxCell>
                <mxCell id="10" value="username" style="shape=partialRectangle;html=1;whiteSpace=wrap;connectable=1;overflow=hidden;fillColor=none;top=0;left=0;bottom=0;right=0;pointerEvents=1;align=center;fontColor=#000000;fontSize=12;rounded=0;movable=1;resizable=1;rotatable=1;deletable=1;editable=1;locked=0;verticalAlign=middle;labelBackgroundColor=#FFFFFF;fontFamily=Verdana;" vertex="1" parent="9">
                    <mxGeometry width="80" height="33" as="geometry">
                        <mxRectangle width="80" height="33" as="alternateBounds"/>
                    </mxGeometry>
                </mxCell>
                <mxCell id="11" value="Char" style="shape=partialRectangle;html=1;whiteSpace=wrap;connectable=1;overflow=hidden;fillColor=none;top=0;left=0;bottom=0;right=0;pointerEvents=1;align=center;fontColor=#000000;fontSize=12;rounded=0;movable=1;resizable=1;rotatable=1;deletable=1;editable=1;locked=0;verticalAlign=middle;labelBackgroundColor=#FFFFFF;fontFamily=Verdana;" vertex="1" parent="9">
                    <mxGeometry x="80" width="80" height="33" as="geometry">
                        <mxRectangle width="80" height="33" as="alternateBounds"/>
                    </mxGeometry>
                </mxCell>
                <mxCell id="12" value="" style="shape=tableRow;horizontal=0;startSize=0;swimlaneHead=0;swimlaneBody=0;top=0;left=0;bottom=0;right=0;collapsible=0;dropTarget=0;fillColor=none;points=[[0,0.5],[1,0.5]];portConstraint=eastwest;fontColor=#000000;fontSize=12;align=center;rounded=0;movable=1;resizable=1;rotatable=1;deletable=1;editable=1;connectable=1;locked=0;verticalAlign=middle;labelBackgroundColor=#FFFFFF;fontFamily=Verdana;" vertex="1" parent="2">
                    <mxGeometry y="98" width="160" height="32" as="geometry"/>
                </mxCell>
                <mxCell id="13" value="password&lt;br style=&quot;font-size: 12px;&quot;&gt;" style="shape=partialRectangle;html=1;whiteSpace=wrap;connectable=1;overflow=hidden;fillColor=none;top=0;left=0;bottom=0;right=0;pointerEvents=1;align=center;fontColor=#000000;fontSize=12;rounded=0;movable=1;resizable=1;rotatable=1;deletable=1;editable=1;locked=0;verticalAlign=middle;labelBackgroundColor=#FFFFFF;fontFamily=Verdana;" vertex="1" parent="12">
                    <mxGeometry width="80" height="32" as="geometry">
                        <mxRectangle width="80" height="32" as="alternateBounds"/>
                    </mxGeometry>
                </mxCell>
                <mxCell id="14" value="Char" style="shape=partialRectangle;html=1;whiteSpace=wrap;connectable=1;overflow=hidden;fillColor=none;top=0;left=0;bottom=0;right=0;pointerEvents=1;align=center;fontColor=#000000;fontSize=12;rounded=0;movable=1;resizable=1;rotatable=1;deletable=1;editable=1;locked=0;verticalAlign=middle;labelBackgroundColor=#FFFFFF;fontFamily=Verdana;" vertex="1" parent="12">
                    <mxGeometry x="80" width="80" height="32" as="geometry">
                        <mxRectangle width="80" height="32" as="alternateBounds"/>
                    </mxGeometry>
                </mxCell>
                <mxCell id="15" value="" style="shape=table;startSize=0;container=1;collapsible=0;childLayout=tableLayout;align=center;fontColor=#000000;fontSize=12;rounded=0;movable=1;resizable=1;rotatable=1;deletable=1;editable=1;connectable=1;locked=0;verticalAlign=middle;labelBackgroundColor=#FFFFFF;fontFamily=Verdana;" vertex="1" parent="1">
                    <mxGeometry x="537" y="280" width="290" height="263" as="geometry"/>
                </mxCell>
                <mxCell id="16" value="" style="shape=tableRow;horizontal=0;startSize=0;swimlaneHead=0;swimlaneBody=0;top=0;left=0;bottom=0;right=0;collapsible=0;dropTarget=0;fillColor=none;points=[[0,0.5],[1,0.5]];portConstraint=eastwest;fontColor=#000000;fontSize=12;align=center;rounded=0;movable=1;resizable=1;rotatable=1;deletable=1;editable=1;connectable=1;locked=0;verticalAlign=middle;labelBackgroundColor=#FFFFFF;fontFamily=Verdana;" vertex="1" parent="15">
                    <mxGeometry width="290" height="33" as="geometry"/>
                </mxCell>
                <mxCell id="17" value="Course" style="shape=partialRectangle;html=1;whiteSpace=wrap;connectable=1;overflow=hidden;fillColor=none;top=0;left=0;bottom=0;right=0;pointerEvents=1;rowspan=1;colspan=2;align=center;fontColor=#000000;fontSize=12;rounded=0;movable=1;resizable=1;rotatable=1;deletable=1;editable=1;locked=0;verticalAlign=middle;labelBackgroundColor=#FFFFFF;fontFamily=Verdana;" vertex="1" parent="16">
                    <mxGeometry width="290" height="33" as="geometry">
                        <mxRectangle width="140" height="33" as="alternateBounds"/>
                    </mxGeometry>
                </mxCell>
                <mxCell id="18" value="" style="shape=partialRectangle;html=1;whiteSpace=wrap;connectable=0;overflow=hidden;fillColor=none;top=0;left=0;bottom=0;right=0;pointerEvents=1;align=left;fontColor=#FFFFFF;rounded=0;" vertex="1" visible="0" parent="16">
                    <mxGeometry x="140" width="150" height="33" as="geometry">
                        <mxRectangle width="150" height="33" as="alternateBounds"/>
                    </mxGeometry>
                </mxCell>
                <mxCell id="19" value="" style="shape=tableRow;horizontal=0;startSize=0;swimlaneHead=0;swimlaneBody=0;top=0;left=0;bottom=0;right=0;collapsible=0;dropTarget=0;fillColor=none;points=[[0,0.5],[1,0.5]];portConstraint=eastwest;fontColor=#000000;fontSize=12;align=center;rounded=0;movable=1;resizable=1;rotatable=1;deletable=1;editable=1;connectable=1;locked=0;verticalAlign=middle;labelBackgroundColor=#FFFFFF;fontFamily=Verdana;" vertex="1" parent="15">
                    <mxGeometry y="33" width="290" height="32" as="geometry"/>
                </mxCell>
                <mxCell id="20" value="id" style="shape=partialRectangle;html=1;whiteSpace=wrap;connectable=1;overflow=hidden;fillColor=none;top=0;left=0;bottom=0;right=0;pointerEvents=1;align=center;fontColor=#000000;fontSize=12;rounded=0;movable=1;resizable=1;rotatable=1;deletable=1;editable=1;locked=0;verticalAlign=middle;labelBackgroundColor=#FFFFFF;fontFamily=Verdana;" vertex="1" parent="19">
                    <mxGeometry width="140" height="32" as="geometry">
                        <mxRectangle width="140" height="32" as="alternateBounds"/>
                    </mxGeometry>
                </mxCell>
                <mxCell id="21" value="BigAuto" style="shape=partialRectangle;html=1;whiteSpace=wrap;connectable=1;overflow=hidden;fillColor=none;top=0;left=0;bottom=0;right=0;pointerEvents=1;align=center;fontColor=#000000;fontSize=12;rounded=0;movable=1;resizable=1;rotatable=1;deletable=1;editable=1;locked=0;verticalAlign=middle;labelBackgroundColor=#FFFFFF;fontFamily=Verdana;" vertex="1" parent="19">
                    <mxGeometry x="140" width="150" height="32" as="geometry">
                        <mxRectangle width="150" height="32" as="alternateBounds"/>
                    </mxGeometry>
                </mxCell>
                <mxCell id="22" value="" style="shape=tableRow;horizontal=0;startSize=0;swimlaneHead=0;swimlaneBody=0;top=0;left=0;bottom=0;right=0;collapsible=0;dropTarget=0;fillColor=none;points=[[0,0.5],[1,0.5]];portConstraint=eastwest;fontColor=#000000;fontSize=12;align=center;rounded=0;movable=1;resizable=1;rotatable=1;deletable=1;editable=1;connectable=1;locked=0;verticalAlign=middle;labelBackgroundColor=#FFFFFF;fontFamily=Verdana;" vertex="1" parent="15">
                    <mxGeometry y="65" width="290" height="33" as="geometry"/>
                </mxCell>
                <mxCell id="23" value="season" style="shape=partialRectangle;html=1;whiteSpace=wrap;connectable=1;overflow=hidden;fillColor=none;top=0;left=0;bottom=0;right=0;pointerEvents=1;align=center;fontColor=#000000;fontSize=12;rounded=0;movable=1;resizable=1;rotatable=1;deletable=1;editable=1;locked=0;verticalAlign=middle;labelBackgroundColor=#FFFFFF;fontFamily=Verdana;" vertex="1" parent="22">
                    <mxGeometry width="140" height="33" as="geometry">
                        <mxRectangle width="140" height="33" as="alternateBounds"/>
                    </mxGeometry>
                </mxCell>
                <mxCell id="24" value="Char" style="shape=partialRectangle;html=1;whiteSpace=wrap;connectable=1;overflow=hidden;fillColor=none;top=0;left=0;bottom=0;right=0;pointerEvents=1;align=center;fontColor=#000000;fontSize=12;rounded=0;movable=1;resizable=1;rotatable=1;deletable=1;editable=1;locked=0;verticalAlign=middle;labelBackgroundColor=#FFFFFF;fontFamily=Verdana;" vertex="1" parent="22">
                    <mxGeometry x="140" width="150" height="33" as="geometry">
                        <mxRectangle width="150" height="33" as="alternateBounds"/>
                    </mxGeometry>
                </mxCell>
                <mxCell id="102" style="shape=tableRow;horizontal=0;startSize=0;swimlaneHead=0;swimlaneBody=0;top=0;left=0;bottom=0;right=0;collapsible=0;dropTarget=0;fillColor=none;points=[[0,0.5],[1,0.5]];portConstraint=eastwest;fontColor=#000000;fontSize=12;align=center;rounded=0;movable=1;resizable=1;rotatable=1;deletable=1;editable=1;connectable=1;locked=0;verticalAlign=middle;labelBackgroundColor=#FFFFFF;fontFamily=Verdana;" vertex="1" parent="15">
                    <mxGeometry y="98" width="290" height="33" as="geometry"/>
                </mxCell>
                <mxCell id="103" value="title" style="shape=partialRectangle;html=1;whiteSpace=wrap;connectable=1;overflow=hidden;fillColor=none;top=0;left=0;bottom=0;right=0;pointerEvents=1;align=center;fontColor=#000000;fontSize=12;rounded=0;movable=1;resizable=1;rotatable=1;deletable=1;editable=1;locked=0;verticalAlign=middle;labelBackgroundColor=#FFFFFF;fontFamily=Verdana;" vertex="1" parent="102">
                    <mxGeometry width="140" height="33" as="geometry">
                        <mxRectangle width="140" height="33" as="alternateBounds"/>
                    </mxGeometry>
                </mxCell>
                <mxCell id="104" value="Char" style="shape=partialRectangle;html=1;whiteSpace=wrap;connectable=1;overflow=hidden;fillColor=none;top=0;left=0;bottom=0;right=0;pointerEvents=1;align=center;fontColor=#000000;fontSize=12;rounded=0;movable=1;resizable=1;rotatable=1;deletable=1;editable=1;locked=0;verticalAlign=middle;labelBackgroundColor=#FFFFFF;fontFamily=Verdana;" vertex="1" parent="102">
                    <mxGeometry x="140" width="150" height="33" as="geometry">
                        <mxRectangle width="150" height="33" as="alternateBounds"/>
                    </mxGeometry>
                </mxCell>
                <mxCell id="99" style="shape=tableRow;horizontal=0;startSize=0;swimlaneHead=0;swimlaneBody=0;top=0;left=0;bottom=0;right=0;collapsible=0;dropTarget=0;fillColor=none;points=[[0,0.5],[1,0.5]];portConstraint=eastwest;fontColor=#000000;fontSize=12;align=center;rounded=0;movable=1;resizable=1;rotatable=1;deletable=1;editable=1;connectable=1;locked=0;verticalAlign=middle;labelBackgroundColor=#FFFFFF;fontFamily=Verdana;" vertex="1" parent="15">
                    <mxGeometry y="131" width="290" height="33" as="geometry"/>
                </mxCell>
                <mxCell id="100" value="date" style="shape=partialRectangle;html=1;whiteSpace=wrap;connectable=1;overflow=hidden;fillColor=none;top=0;left=0;bottom=0;right=0;pointerEvents=1;align=center;fontColor=#000000;fontSize=12;rounded=0;movable=1;resizable=1;rotatable=1;deletable=1;editable=1;locked=0;verticalAlign=middle;labelBackgroundColor=#FFFFFF;fontFamily=Verdana;" vertex="1" parent="99">
                    <mxGeometry width="140" height="33" as="geometry">
                        <mxRectangle width="140" height="33" as="alternateBounds"/>
                    </mxGeometry>
                </mxCell>
                <mxCell id="101" value="DateField" style="shape=partialRectangle;html=1;whiteSpace=wrap;connectable=1;overflow=hidden;fillColor=none;top=0;left=0;bottom=0;right=0;pointerEvents=1;align=center;fontColor=#000000;fontSize=12;rounded=0;movable=1;resizable=1;rotatable=1;deletable=1;editable=1;locked=0;verticalAlign=middle;labelBackgroundColor=#FFFFFF;fontFamily=Verdana;" vertex="1" parent="99">
                    <mxGeometry x="140" width="150" height="33" as="geometry">
                        <mxRectangle width="150" height="33" as="alternateBounds"/>
                    </mxGeometry>
                </mxCell>
                <mxCell id="96" style="shape=tableRow;horizontal=0;startSize=0;swimlaneHead=0;swimlaneBody=0;top=0;left=0;bottom=0;right=0;collapsible=0;dropTarget=0;fillColor=none;points=[[0,0.5],[1,0.5]];portConstraint=eastwest;fontColor=#000000;fontSize=12;align=center;rounded=0;movable=1;resizable=1;rotatable=1;deletable=1;editable=1;connectable=1;locked=0;verticalAlign=middle;labelBackgroundColor=#FFFFFF;fontFamily=Verdana;" vertex="1" parent="15">
                    <mxGeometry y="164" width="290" height="33" as="geometry"/>
                </mxCell>
                <mxCell id="97" value="description" style="shape=partialRectangle;html=1;whiteSpace=wrap;connectable=1;overflow=hidden;fillColor=none;top=0;left=0;bottom=0;right=0;pointerEvents=1;align=center;fontColor=#000000;fontSize=12;rounded=0;movable=1;resizable=1;rotatable=1;deletable=1;editable=1;locked=0;verticalAlign=middle;labelBackgroundColor=#FFFFFF;fontFamily=Verdana;" vertex="1" parent="96">
                    <mxGeometry width="140" height="33" as="geometry">
                        <mxRectangle width="140" height="33" as="alternateBounds"/>
                    </mxGeometry>
                </mxCell>
                <mxCell id="98" value="Text" style="shape=partialRectangle;html=1;whiteSpace=wrap;connectable=1;overflow=hidden;fillColor=none;top=0;left=0;bottom=0;right=0;pointerEvents=1;align=center;fontColor=#000000;fontSize=12;rounded=0;movable=1;resizable=1;rotatable=1;deletable=1;editable=1;locked=0;verticalAlign=middle;labelBackgroundColor=#FFFFFF;fontFamily=Verdana;" vertex="1" parent="96">
                    <mxGeometry x="140" width="150" height="33" as="geometry">
                        <mxRectangle width="150" height="33" as="alternateBounds"/>
                    </mxGeometry>
                </mxCell>
                <mxCell id="93" style="shape=tableRow;horizontal=0;startSize=0;swimlaneHead=0;swimlaneBody=0;top=0;left=0;bottom=0;right=0;collapsible=0;dropTarget=0;fillColor=none;points=[[0,0.5],[1,0.5]];portConstraint=eastwest;fontColor=#000000;fontSize=12;align=center;rounded=0;movable=1;resizable=1;rotatable=1;deletable=1;editable=1;connectable=1;locked=0;verticalAlign=middle;labelBackgroundColor=#FFFFFF;fontFamily=Verdana;" vertex="1" parent="15">
                    <mxGeometry y="197" width="290" height="33" as="geometry"/>
                </mxCell>
                <mxCell id="94" value="location" style="shape=partialRectangle;html=1;whiteSpace=wrap;connectable=1;overflow=hidden;fillColor=none;top=0;left=0;bottom=0;right=0;pointerEvents=1;align=center;fontColor=#000000;fontSize=12;rounded=0;movable=1;resizable=1;rotatable=1;deletable=1;editable=1;locked=0;verticalAlign=middle;labelBackgroundColor=#FFFFFF;fontFamily=Verdana;" vertex="1" parent="93">
                    <mxGeometry width="140" height="33" as="geometry">
                        <mxRectangle width="140" height="33" as="alternateBounds"/>
                    </mxGeometry>
                </mxCell>
                <mxCell id="95" value="Char" style="shape=partialRectangle;html=1;whiteSpace=wrap;connectable=1;overflow=hidden;fillColor=none;top=0;left=0;bottom=0;right=0;pointerEvents=1;align=center;fontColor=#000000;fontSize=12;rounded=0;movable=1;resizable=1;rotatable=1;deletable=1;editable=1;locked=0;verticalAlign=middle;labelBackgroundColor=#FFFFFF;fontFamily=Verdana;" vertex="1" parent="93">
                    <mxGeometry x="140" width="150" height="33" as="geometry">
                        <mxRectangle width="150" height="33" as="alternateBounds"/>
                    </mxGeometry>
                </mxCell>
                <mxCell id="90" style="shape=tableRow;horizontal=0;startSize=0;swimlaneHead=0;swimlaneBody=0;top=0;left=0;bottom=0;right=0;collapsible=0;dropTarget=0;fillColor=none;points=[[0,0.5],[1,0.5]];portConstraint=eastwest;fontColor=#000000;fontSize=12;align=center;rounded=0;movable=1;resizable=1;rotatable=1;deletable=1;editable=1;connectable=1;locked=0;verticalAlign=middle;labelBackgroundColor=#FFFFFF;fontFamily=Verdana;" vertex="1" parent="15">
                    <mxGeometry y="230" width="290" height="33" as="geometry"/>
                </mxCell>
                <mxCell id="91" value="max_capacity" style="shape=partialRectangle;html=1;whiteSpace=wrap;connectable=1;overflow=hidden;fillColor=none;top=0;left=0;bottom=0;right=0;pointerEvents=1;align=center;fontColor=#000000;fontSize=12;rounded=0;movable=1;resizable=1;rotatable=1;deletable=1;editable=1;locked=0;verticalAlign=middle;labelBackgroundColor=#FFFFFF;fontFamily=Verdana;" vertex="1" parent="90">
                    <mxGeometry width="140" height="33" as="geometry">
                        <mxRectangle width="140" height="33" as="alternateBounds"/>
                    </mxGeometry>
                </mxCell>
                <mxCell id="92" value="PositiveIntergerField" style="shape=partialRectangle;html=1;whiteSpace=wrap;connectable=1;overflow=hidden;fillColor=none;top=0;left=0;bottom=0;right=0;pointerEvents=1;align=center;fontColor=#000000;fontSize=12;rounded=0;movable=1;resizable=1;rotatable=1;deletable=1;editable=1;locked=0;verticalAlign=middle;labelBackgroundColor=#FFFFFF;fontFamily=Verdana;" vertex="1" parent="90">
                    <mxGeometry x="140" width="150" height="33" as="geometry">
                        <mxRectangle width="150" height="33" as="alternateBounds"/>
                    </mxGeometry>
                </mxCell>
                <mxCell id="28" value="" style="shape=table;startSize=0;container=1;collapsible=0;childLayout=tableLayout;align=center;fontColor=#000000;fontSize=12;rounded=0;movable=1;resizable=1;rotatable=1;deletable=1;editable=1;connectable=1;locked=0;verticalAlign=middle;labelBackgroundColor=#FFFFFF;fontFamily=Verdana;" vertex="1" parent="1">
                    <mxGeometry x="880" y="280" width="320" height="429" as="geometry"/>
                </mxCell>
                <mxCell id="29" value="" style="shape=tableRow;horizontal=0;startSize=0;swimlaneHead=0;swimlaneBody=0;top=0;left=0;bottom=0;right=0;collapsible=0;dropTarget=0;fillColor=none;points=[[0,0.5],[1,0.5]];portConstraint=eastwest;fontColor=#000000;fontSize=12;align=center;rounded=0;movable=1;resizable=1;rotatable=1;deletable=1;editable=1;connectable=1;locked=0;verticalAlign=middle;labelBackgroundColor=#FFFFFF;fontFamily=Verdana;" vertex="1" parent="28">
                    <mxGeometry width="320" height="37" as="geometry"/>
                </mxCell>
                <mxCell id="30" value="CourseRegistration" style="shape=partialRectangle;html=1;whiteSpace=wrap;connectable=1;overflow=hidden;fillColor=none;top=0;left=0;bottom=0;right=0;pointerEvents=1;rowspan=1;colspan=2;align=center;fontColor=#000000;fontSize=12;rounded=0;movable=1;resizable=1;rotatable=1;deletable=1;editable=1;locked=0;verticalAlign=middle;labelBackgroundColor=#FFFFFF;fontFamily=Verdana;" vertex="1" parent="29">
                    <mxGeometry width="320" height="37" as="geometry">
                        <mxRectangle width="161" height="37" as="alternateBounds"/>
                    </mxGeometry>
                </mxCell>
                <mxCell id="31" value="" style="shape=partialRectangle;html=1;whiteSpace=wrap;connectable=0;overflow=hidden;fillColor=none;top=0;left=0;bottom=0;right=0;pointerEvents=1;align=left;fontColor=#FFFFFF;rounded=0;" vertex="1" visible="0" parent="29">
                    <mxGeometry x="161" width="159" height="37" as="geometry">
                        <mxRectangle width="159" height="37" as="alternateBounds"/>
                    </mxGeometry>
                </mxCell>
                <mxCell id="32" value="" style="shape=tableRow;horizontal=0;startSize=0;swimlaneHead=0;swimlaneBody=0;top=0;left=0;bottom=0;right=0;collapsible=0;dropTarget=0;fillColor=none;points=[[0,0.5],[1,0.5]];portConstraint=eastwest;fontColor=#000000;fontSize=12;align=center;rounded=0;movable=1;resizable=1;rotatable=1;deletable=1;editable=1;connectable=1;locked=0;verticalAlign=middle;labelBackgroundColor=#FFFFFF;fontFamily=Verdana;" vertex="1" parent="28">
                    <mxGeometry y="37" width="320" height="36" as="geometry"/>
                </mxCell>
                <mxCell id="33" value="id" style="shape=partialRectangle;html=1;whiteSpace=wrap;connectable=1;overflow=hidden;fillColor=none;top=0;left=0;bottom=0;right=0;pointerEvents=1;align=center;fontColor=#000000;fontSize=12;rounded=0;movable=1;resizable=1;rotatable=1;deletable=1;editable=1;locked=0;verticalAlign=middle;labelBackgroundColor=#FFFFFF;fontFamily=Verdana;" vertex="1" parent="32">
                    <mxGeometry width="161" height="36" as="geometry">
                        <mxRectangle width="161" height="36" as="alternateBounds"/>
                    </mxGeometry>
                </mxCell>
                <mxCell id="34" value="BigAuto" style="shape=partialRectangle;html=1;whiteSpace=wrap;connectable=1;overflow=hidden;fillColor=none;top=0;left=0;bottom=0;right=0;pointerEvents=1;align=center;fontColor=#000000;fontSize=12;rounded=0;movable=1;resizable=1;rotatable=1;deletable=1;editable=1;locked=0;verticalAlign=middle;labelBackgroundColor=#FFFFFF;fontFamily=Verdana;" vertex="1" parent="32">
                    <mxGeometry x="161" width="159" height="36" as="geometry">
                        <mxRectangle width="159" height="36" as="alternateBounds"/>
                    </mxGeometry>
                </mxCell>
                <mxCell id="35" value="" style="shape=tableRow;horizontal=0;startSize=0;swimlaneHead=0;swimlaneBody=0;top=0;left=0;bottom=0;right=0;collapsible=0;dropTarget=0;fillColor=none;points=[[0,0.5],[1,0.5]];portConstraint=eastwest;fontColor=#000000;fontSize=12;align=center;rounded=0;movable=1;resizable=1;rotatable=1;deletable=1;editable=1;connectable=1;locked=0;verticalAlign=middle;labelBackgroundColor=#FFFFFF;fontFamily=Verdana;" vertex="1" parent="28">
                    <mxGeometry y="73" width="320" height="36" as="geometry"/>
                </mxCell>
                <mxCell id="36" value="course_title" style="shape=partialRectangle;html=1;whiteSpace=wrap;connectable=1;overflow=hidden;fillColor=none;top=0;left=0;bottom=0;right=0;pointerEvents=1;align=center;fontColor=#000000;fontSize=12;rounded=0;movable=1;resizable=1;rotatable=1;deletable=1;editable=1;locked=0;verticalAlign=middle;labelBackgroundColor=#FFFFFF;fontFamily=Verdana;" vertex="1" parent="35">
                    <mxGeometry width="161" height="36" as="geometry">
                        <mxRectangle width="161" height="36" as="alternateBounds"/>
                    </mxGeometry>
                </mxCell>
                <mxCell id="37" value="Char" style="shape=partialRectangle;html=1;whiteSpace=wrap;connectable=1;overflow=hidden;fillColor=none;top=0;left=0;bottom=0;right=0;pointerEvents=1;align=center;fontColor=#000000;fontSize=12;rounded=0;movable=1;resizable=1;rotatable=1;deletable=1;editable=1;locked=0;verticalAlign=middle;labelBackgroundColor=#FFFFFF;fontFamily=Verdana;" vertex="1" parent="35">
                    <mxGeometry x="161" width="159" height="36" as="geometry">
                        <mxRectangle width="159" height="36" as="alternateBounds"/>
                    </mxGeometry>
                </mxCell>
                <mxCell id="38" value="" style="shape=tableRow;horizontal=0;startSize=0;swimlaneHead=0;swimlaneBody=0;top=0;left=0;bottom=0;right=0;collapsible=0;dropTarget=0;fillColor=none;points=[[0,0.5],[1,0.5]];portConstraint=eastwest;fontColor=#000000;fontSize=12;align=center;rounded=0;movable=1;resizable=1;rotatable=1;deletable=1;editable=1;connectable=1;locked=0;verticalAlign=middle;labelBackgroundColor=#FFFFFF;fontFamily=Verdana;" vertex="1" parent="28">
                    <mxGeometry y="109" width="320" height="36" as="geometry"/>
                </mxCell>
                <mxCell id="39" value="Owner" style="shape=partialRectangle;html=1;whiteSpace=wrap;connectable=1;overflow=hidden;fillColor=none;top=0;left=0;bottom=0;right=0;pointerEvents=1;align=center;fontColor=#000000;fontSize=12;rounded=0;movable=1;resizable=1;rotatable=1;deletable=1;editable=1;locked=0;verticalAlign=middle;labelBackgroundColor=#FFFFFF;fontFamily=Verdana;" vertex="1" parent="38">
                    <mxGeometry width="161" height="36" as="geometry">
                        <mxRectangle width="161" height="36" as="alternateBounds"/>
                    </mxGeometry>
                </mxCell>
                <mxCell id="40" value="ForiegnKey" style="shape=partialRectangle;html=1;whiteSpace=wrap;connectable=1;overflow=hidden;fillColor=none;top=0;left=0;bottom=0;right=0;pointerEvents=1;align=center;fontColor=#000000;fontSize=12;rounded=0;movable=1;resizable=1;rotatable=1;deletable=1;editable=1;locked=0;verticalAlign=middle;labelBackgroundColor=#FFFFFF;fontFamily=Verdana;" vertex="1" parent="38">
                    <mxGeometry x="161" width="159" height="36" as="geometry">
                        <mxRectangle width="159" height="36" as="alternateBounds"/>
                    </mxGeometry>
                </mxCell>
                <mxCell id="41" style="shape=tableRow;horizontal=0;startSize=0;swimlaneHead=0;swimlaneBody=0;top=0;left=0;bottom=0;right=0;collapsible=0;dropTarget=0;fillColor=none;points=[[0,0.5],[1,0.5]];portConstraint=eastwest;fontColor=#000000;fontSize=12;align=center;rounded=0;movable=1;resizable=1;rotatable=1;deletable=1;editable=1;connectable=1;locked=0;verticalAlign=middle;labelBackgroundColor=#FFFFFF;fontFamily=Verdana;" vertex="1" parent="28">
                    <mxGeometry y="145" width="320" height="36" as="geometry"/>
                </mxCell>
                <mxCell id="42" value="email &lt;br&gt;" style="shape=partialRectangle;html=1;whiteSpace=wrap;connectable=1;overflow=hidden;fillColor=none;top=0;left=0;bottom=0;right=0;pointerEvents=1;align=center;fontColor=#000000;fontSize=12;rounded=0;movable=1;resizable=1;rotatable=1;deletable=1;editable=1;locked=0;verticalAlign=middle;labelBackgroundColor=#FFFFFF;fontFamily=Verdana;" vertex="1" parent="41">
                    <mxGeometry width="161" height="36" as="geometry">
                        <mxRectangle width="161" height="36" as="alternateBounds"/>
                    </mxGeometry>
                </mxCell>
                <mxCell id="43" value="EmailField" style="shape=partialRectangle;html=1;whiteSpace=wrap;connectable=1;overflow=hidden;fillColor=none;top=0;left=0;bottom=0;right=0;pointerEvents=1;align=center;fontColor=#000000;fontSize=12;rounded=0;movable=1;resizable=1;rotatable=1;deletable=1;editable=1;locked=0;verticalAlign=middle;labelBackgroundColor=#FFFFFF;fontFamily=Verdana;" vertex="1" parent="41">
                    <mxGeometry x="161" width="159" height="36" as="geometry">
                        <mxRectangle width="159" height="36" as="alternateBounds"/>
                    </mxGeometry>
                </mxCell>
                <mxCell id="44" style="shape=tableRow;horizontal=0;startSize=0;swimlaneHead=0;swimlaneBody=0;top=0;left=0;bottom=0;right=0;collapsible=0;dropTarget=0;fillColor=none;points=[[0,0.5],[1,0.5]];portConstraint=eastwest;fontColor=#000000;fontSize=12;align=center;rounded=0;movable=1;resizable=1;rotatable=1;deletable=1;editable=1;connectable=1;locked=0;verticalAlign=middle;labelBackgroundColor=#FFFFFF;fontFamily=Verdana;" vertex="1" parent="28">
                    <mxGeometry y="181" width="320" height="35" as="geometry"/>
                </mxCell>
                <mxCell id="45" value="phone" style="shape=partialRectangle;html=1;whiteSpace=wrap;connectable=1;overflow=hidden;fillColor=none;top=0;left=0;bottom=0;right=0;pointerEvents=1;align=center;fontColor=#000000;fontSize=12;rounded=0;movable=1;resizable=1;rotatable=1;deletable=1;editable=1;locked=0;verticalAlign=middle;labelBackgroundColor=#FFFFFF;fontFamily=Verdana;" vertex="1" parent="44">
                    <mxGeometry width="161" height="35" as="geometry">
                        <mxRectangle width="161" height="35" as="alternateBounds"/>
                    </mxGeometry>
                </mxCell>
                <mxCell id="46" value="Char" style="shape=partialRectangle;html=1;whiteSpace=wrap;connectable=1;overflow=hidden;fillColor=none;top=0;left=0;bottom=0;right=0;pointerEvents=1;align=center;fontColor=#000000;fontSize=12;rounded=0;movable=1;resizable=1;rotatable=1;deletable=1;editable=1;locked=0;verticalAlign=middle;labelBackgroundColor=#FFFFFF;fontFamily=Verdana;" vertex="1" parent="44">
                    <mxGeometry x="161" width="159" height="35" as="geometry">
                        <mxRectangle width="159" height="35" as="alternateBounds"/>
                    </mxGeometry>
                </mxCell>
                <mxCell id="47" style="shape=tableRow;horizontal=0;startSize=0;swimlaneHead=0;swimlaneBody=0;top=0;left=0;bottom=0;right=0;collapsible=0;dropTarget=0;fillColor=none;points=[[0,0.5],[1,0.5]];portConstraint=eastwest;fontColor=#000000;fontSize=12;align=center;rounded=0;movable=1;resizable=1;rotatable=1;deletable=1;editable=1;connectable=1;locked=0;verticalAlign=middle;labelBackgroundColor=#FFFFFF;fontFamily=Verdana;" vertex="1" parent="28">
                    <mxGeometry y="216" width="320" height="35" as="geometry"/>
                </mxCell>
                <mxCell id="48" value="registration_date" style="shape=partialRectangle;html=1;whiteSpace=wrap;connectable=1;overflow=hidden;fillColor=none;top=0;left=0;bottom=0;right=0;pointerEvents=1;align=center;fontColor=#000000;fontSize=12;rounded=0;movable=1;resizable=1;rotatable=1;deletable=1;editable=1;locked=0;verticalAlign=middle;labelBackgroundColor=#FFFFFF;fontFamily=Verdana;" vertex="1" parent="47">
                    <mxGeometry width="161" height="35" as="geometry">
                        <mxRectangle width="161" height="35" as="alternateBounds"/>
                    </mxGeometry>
                </mxCell>
                <mxCell id="49" value="DateTime" style="shape=partialRectangle;html=1;whiteSpace=wrap;connectable=1;overflow=hidden;fillColor=none;top=0;left=0;bottom=0;right=0;pointerEvents=1;align=center;fontColor=#000000;fontSize=12;rounded=0;movable=1;resizable=1;rotatable=1;deletable=1;editable=1;locked=0;verticalAlign=middle;labelBackgroundColor=#FFFFFF;fontFamily=Verdana;" vertex="1" parent="47">
                    <mxGeometry x="161" width="159" height="35" as="geometry">
                        <mxRectangle width="159" height="35" as="alternateBounds"/>
                    </mxGeometry>
                </mxCell>
                <mxCell id="105" style="shape=tableRow;horizontal=0;startSize=0;swimlaneHead=0;swimlaneBody=0;top=0;left=0;bottom=0;right=0;collapsible=0;dropTarget=0;fillColor=none;points=[[0,0.5],[1,0.5]];portConstraint=eastwest;fontColor=#000000;fontSize=12;align=center;rounded=0;movable=1;resizable=1;rotatable=1;deletable=1;editable=1;connectable=1;locked=0;verticalAlign=middle;labelBackgroundColor=#FFFFFF;fontFamily=Verdana;" vertex="1" parent="28">
                    <mxGeometry y="251" width="320" height="35" as="geometry"/>
                </mxCell>
                <mxCell id="106" value="status" style="shape=partialRectangle;html=1;whiteSpace=wrap;connectable=1;overflow=hidden;fillColor=none;top=0;left=0;bottom=0;right=0;pointerEvents=1;align=center;fontColor=#000000;fontSize=12;rounded=0;movable=1;resizable=1;rotatable=1;deletable=1;editable=1;locked=0;verticalAlign=middle;labelBackgroundColor=#FFFFFF;fontFamily=Verdana;" vertex="1" parent="105">
                    <mxGeometry width="161" height="35" as="geometry">
                        <mxRectangle width="161" height="35" as="alternateBounds"/>
                    </mxGeometry>
                </mxCell>
                <mxCell id="107" value="Char" style="shape=partialRectangle;html=1;whiteSpace=wrap;connectable=1;overflow=hidden;fillColor=none;top=0;left=0;bottom=0;right=0;pointerEvents=1;align=center;fontColor=#000000;fontSize=12;rounded=0;movable=1;resizable=1;rotatable=1;deletable=1;editable=1;locked=0;verticalAlign=middle;labelBackgroundColor=#FFFFFF;fontFamily=Verdana;" vertex="1" parent="105">
                    <mxGeometry x="161" width="159" height="35" as="geometry">
                        <mxRectangle width="159" height="35" as="alternateBounds"/>
                    </mxGeometry>
                </mxCell>
                <mxCell id="50" style="shape=tableRow;horizontal=0;startSize=0;swimlaneHead=0;swimlaneBody=0;top=0;left=0;bottom=0;right=0;collapsible=0;dropTarget=0;fillColor=none;points=[[0,0.5],[1,0.5]];portConstraint=eastwest;fontColor=#000000;fontSize=12;align=center;rounded=0;movable=1;resizable=1;rotatable=1;deletable=1;editable=1;connectable=1;locked=0;verticalAlign=middle;labelBackgroundColor=#FFFFFF;fontFamily=Verdana;" vertex="1" parent="28">
                    <mxGeometry y="286" width="320" height="36" as="geometry"/>
                </mxCell>
                <mxCell id="51" value="dietary restrictions" style="shape=partialRectangle;html=1;whiteSpace=wrap;connectable=1;overflow=hidden;fillColor=none;top=0;left=0;bottom=0;right=0;pointerEvents=1;align=center;fontColor=#000000;fontSize=12;rounded=0;movable=1;resizable=1;rotatable=1;deletable=1;editable=1;locked=0;verticalAlign=middle;labelBackgroundColor=#FFFFFF;fontFamily=Verdana;" vertex="1" parent="50">
                    <mxGeometry width="161" height="36" as="geometry">
                        <mxRectangle width="161" height="36" as="alternateBounds"/>
                    </mxGeometry>
                </mxCell>
                <mxCell id="52" value="Text" style="shape=partialRectangle;html=1;whiteSpace=wrap;connectable=1;overflow=hidden;fillColor=none;top=0;left=0;bottom=0;right=0;pointerEvents=1;align=center;fontColor=#000000;fontSize=12;rounded=0;movable=1;resizable=1;rotatable=1;deletable=1;editable=1;locked=0;verticalAlign=middle;labelBackgroundColor=#FFFFFF;fontFamily=Verdana;" vertex="1" parent="50">
                    <mxGeometry x="161" width="159" height="36" as="geometry">
                        <mxRectangle width="159" height="36" as="alternateBounds"/>
                    </mxGeometry>
                </mxCell>
                <mxCell id="53" style="shape=tableRow;horizontal=0;startSize=0;swimlaneHead=0;swimlaneBody=0;top=0;left=0;bottom=0;right=0;collapsible=0;dropTarget=0;fillColor=none;points=[[0,0.5],[1,0.5]];portConstraint=eastwest;fontColor=#000000;fontSize=12;align=center;rounded=0;movable=1;resizable=1;rotatable=1;deletable=1;editable=1;connectable=1;locked=0;verticalAlign=middle;labelBackgroundColor=#FFFFFF;fontFamily=Verdana;" vertex="1" parent="28">
                    <mxGeometry y="322" width="320" height="36" as="geometry"/>
                </mxCell>
                <mxCell id="54" value="is_driver" style="shape=partialRectangle;html=1;whiteSpace=wrap;connectable=1;overflow=hidden;fillColor=none;top=0;left=0;bottom=0;right=0;pointerEvents=1;align=center;fontColor=#000000;fontSize=12;rounded=0;movable=1;resizable=1;rotatable=1;deletable=1;editable=1;locked=0;verticalAlign=middle;labelBackgroundColor=#FFFFFF;fontFamily=Verdana;" vertex="1" parent="53">
                    <mxGeometry width="161" height="36" as="geometry">
                        <mxRectangle width="161" height="36" as="alternateBounds"/>
                    </mxGeometry>
                </mxCell>
                <mxCell id="55" value="BooleanField" style="shape=partialRectangle;html=1;whiteSpace=wrap;connectable=1;overflow=hidden;fillColor=none;top=0;left=0;bottom=0;right=0;pointerEvents=1;align=center;fontColor=#000000;fontSize=12;rounded=0;movable=1;resizable=1;rotatable=1;deletable=1;editable=1;locked=0;verticalAlign=middle;labelBackgroundColor=#FFFFFF;fontFamily=Verdana;" vertex="1" parent="53">
                    <mxGeometry x="161" width="159" height="36" as="geometry">
                        <mxRectangle width="159" height="36" as="alternateBounds"/>
                    </mxGeometry>
                </mxCell>
                <mxCell id="56" style="shape=tableRow;horizontal=0;startSize=0;swimlaneHead=0;swimlaneBody=0;top=0;left=0;bottom=0;right=0;collapsible=0;dropTarget=0;fillColor=none;points=[[0,0.5],[1,0.5]];portConstraint=eastwest;fontColor=#000000;fontSize=12;align=center;rounded=0;movable=1;resizable=1;rotatable=1;deletable=1;editable=1;connectable=1;locked=0;verticalAlign=middle;labelBackgroundColor=#FFFFFF;fontFamily=Verdana;" vertex="1" parent="28">
                    <mxGeometry y="358" width="320" height="36" as="geometry"/>
                </mxCell>
                <mxCell id="57" value="ice_name" style="shape=partialRectangle;html=1;whiteSpace=wrap;connectable=1;overflow=hidden;fillColor=none;top=0;left=0;bottom=0;right=0;pointerEvents=1;align=center;fontColor=#000000;fontSize=12;rounded=0;movable=1;resizable=1;rotatable=1;deletable=1;editable=1;locked=0;verticalAlign=middle;labelBackgroundColor=#FFFFFF;fontFamily=Verdana;" vertex="1" parent="56">
                    <mxGeometry width="161" height="36" as="geometry">
                        <mxRectangle width="161" height="36" as="alternateBounds"/>
                    </mxGeometry>
                </mxCell>
                <mxCell id="58" value="Char" style="shape=partialRectangle;html=1;whiteSpace=wrap;connectable=1;overflow=hidden;fillColor=none;top=0;left=0;bottom=0;right=0;pointerEvents=1;align=center;fontColor=#000000;fontSize=12;rounded=0;movable=1;resizable=1;rotatable=1;deletable=1;editable=1;locked=0;verticalAlign=middle;labelBackgroundColor=#FFFFFF;fontFamily=Verdana;" vertex="1" parent="56">
                    <mxGeometry x="161" width="159" height="36" as="geometry">
                        <mxRectangle width="159" height="36" as="alternateBounds"/>
                    </mxGeometry>
                </mxCell>
                <mxCell id="59" style="shape=tableRow;horizontal=0;startSize=0;swimlaneHead=0;swimlaneBody=0;top=0;left=0;bottom=0;right=0;collapsible=0;dropTarget=0;fillColor=none;points=[[0,0.5],[1,0.5]];portConstraint=eastwest;fontColor=#000000;fontSize=12;align=center;rounded=0;movable=1;resizable=1;rotatable=1;deletable=1;editable=1;connectable=1;locked=0;verticalAlign=middle;labelBackgroundColor=#FFFFFF;fontFamily=Verdana;" vertex="1" parent="28">
                    <mxGeometry y="394" width="320" height="35" as="geometry"/>
                </mxCell>
                <mxCell id="60" value="ice_number" style="shape=partialRectangle;html=1;whiteSpace=wrap;connectable=1;overflow=hidden;fillColor=none;top=0;left=0;bottom=0;right=0;pointerEvents=1;align=center;fontColor=#000000;fontSize=12;rounded=0;movable=1;resizable=1;rotatable=1;deletable=1;editable=1;locked=0;verticalAlign=middle;labelBackgroundColor=#FFFFFF;fontFamily=Verdana;" vertex="1" parent="59">
                    <mxGeometry width="161" height="35" as="geometry">
                        <mxRectangle width="161" height="35" as="alternateBounds"/>
                    </mxGeometry>
                </mxCell>
                <mxCell id="61" value="Car" style="shape=partialRectangle;html=1;whiteSpace=wrap;connectable=1;overflow=hidden;fillColor=none;top=0;left=0;bottom=0;right=0;pointerEvents=1;align=center;fontColor=#000000;fontSize=12;rounded=0;movable=1;resizable=1;rotatable=1;deletable=1;editable=1;locked=0;verticalAlign=middle;labelBackgroundColor=#FFFFFF;fontFamily=Verdana;" vertex="1" parent="59">
                    <mxGeometry x="161" width="159" height="35" as="geometry">
                        <mxRectangle width="159" height="35" as="alternateBounds"/>
                    </mxGeometry>
                </mxCell>
                <mxCell id="65" value="" style="shape=table;startSize=0;container=1;collapsible=0;childLayout=tableLayout;hachureGap=4;fontFamily=Verdana;fontSize=12;html=0;rounded=0;movable=1;resizable=1;rotatable=1;deletable=1;editable=1;connectable=1;locked=0;verticalAlign=middle;fontColor=#000000;labelBackgroundColor=#FFFFFF;" vertex="1" parent="1">
                    <mxGeometry x="1230" y="110" width="240" height="360" as="geometry"/>
                </mxCell>
                <mxCell id="66" value="" style="shape=tableRow;horizontal=0;startSize=0;swimlaneHead=0;swimlaneBody=0;top=0;left=0;bottom=0;right=0;collapsible=0;dropTarget=0;fillColor=none;points=[[0,0.5],[1,0.5]];portConstraint=eastwest;hachureGap=4;fontFamily=Verdana;fontSize=12;html=0;rounded=0;movable=1;resizable=1;rotatable=1;deletable=1;editable=1;connectable=1;locked=0;verticalAlign=middle;fontColor=#000000;labelBackgroundColor=#FFFFFF;" vertex="1" parent="65">
                    <mxGeometry width="240" height="45" as="geometry"/>
                </mxCell>
                <mxCell id="115" value="" style="shape=tableRow;horizontal=0;startSize=0;swimlaneHead=0;swimlaneBody=0;top=0;left=0;bottom=0;right=0;collapsible=0;dropTarget=0;fillColor=none;points=[[0,0.5],[1,0.5]];portConstraint=eastwest;hachureGap=4;fontFamily=Verdana;fontSize=12;html=0;rounded=0;movable=1;resizable=1;rotatable=1;deletable=1;editable=1;connectable=1;locked=0;verticalAlign=middle;fontColor=#000000;labelBackgroundColor=#FFFFFF;" vertex="1" parent="66">
                    <mxGeometry width="120" height="45" as="geometry">
                        <mxRectangle width="120" height="45" as="alternateBounds"/>
                    </mxGeometry>
                </mxCell>
                <mxCell id="116" value="&lt;font style=&quot;font-size: 12px;&quot;&gt;Profile&lt;/font&gt;" style="shape=partialRectangle;html=1;whiteSpace=wrap;connectable=1;overflow=hidden;fillColor=none;top=0;left=0;bottom=0;right=0;pointerEvents=1;hachureGap=4;fontFamily=Verdana;fontSize=12;rowspan=1;colspan=2;rounded=0;movable=1;resizable=1;rotatable=1;deletable=1;editable=1;locked=0;verticalAlign=middle;fontColor=#000000;labelBackgroundColor=#FFFFFF;" vertex="1" parent="115">
                    <mxGeometry width="240" height="40" as="geometry">
                        <mxRectangle width="120" height="40" as="alternateBounds"/>
                    </mxGeometry>
                </mxCell>
                <mxCell id="117" value="" style="shape=partialRectangle;html=1;whiteSpace=wrap;connectable=0;overflow=hidden;fillColor=none;top=0;left=0;bottom=0;right=0;pointerEvents=1;hachureGap=4;fontFamily=Helvetica;fontSize=12;rounded=0;" vertex="1" visible="0" parent="115">
                    <mxGeometry x="120" width="120" height="40" as="geometry">
                        <mxRectangle width="120" height="40" as="alternateBounds"/>
                    </mxGeometry>
                </mxCell>
                <mxCell id="67" value="&lt;font style=&quot;font-size: 12px;&quot;&gt;Profile&lt;/font&gt;" style="shape=partialRectangle;html=1;whiteSpace=wrap;connectable=1;overflow=hidden;fillColor=none;top=0;left=0;bottom=0;right=0;pointerEvents=1;hachureGap=4;fontFamily=Verdana;fontSize=12;rowspan=1;colspan=2;rounded=0;movable=1;resizable=1;rotatable=1;deletable=1;editable=1;locked=0;verticalAlign=middle;fontColor=#000000;labelBackgroundColor=#FFFFFF;" vertex="1" parent="66">
                    <mxGeometry x="120" width="120" height="45" as="geometry">
                        <mxRectangle width="60" height="45" as="alternateBounds"/>
                    </mxGeometry>
                </mxCell>
                <mxCell id="68" value="" style="shape=partialRectangle;html=1;whiteSpace=wrap;connectable=0;overflow=hidden;fillColor=none;top=0;left=0;bottom=0;right=0;pointerEvents=1;hachureGap=4;fontFamily=Helvetica;fontSize=12;rounded=0;" vertex="1" visible="0" parent="66">
                    <mxGeometry x="180" width="60" height="45" as="geometry">
                        <mxRectangle width="60" height="45" as="alternateBounds"/>
                    </mxGeometry>
                </mxCell>
                <mxCell id="69" value="" style="shape=tableRow;horizontal=0;startSize=0;swimlaneHead=0;swimlaneBody=0;top=0;left=0;bottom=0;right=0;collapsible=0;dropTarget=0;fillColor=none;points=[[0,0.5],[1,0.5]];portConstraint=eastwest;hachureGap=4;fontFamily=Verdana;fontSize=12;html=0;rounded=0;movable=1;resizable=1;rotatable=1;deletable=1;editable=1;connectable=1;locked=0;verticalAlign=middle;fontColor=#000000;labelBackgroundColor=#FFFFFF;" vertex="1" parent="65">
                    <mxGeometry y="45" width="240" height="45" as="geometry"/>
                </mxCell>
                <mxCell id="70" value="id" style="shape=partialRectangle;html=1;whiteSpace=wrap;connectable=1;overflow=hidden;fillColor=none;top=0;left=0;bottom=0;right=0;pointerEvents=1;hachureGap=4;fontFamily=Verdana;fontSize=12;rounded=0;movable=1;resizable=1;rotatable=1;deletable=1;editable=1;locked=0;verticalAlign=middle;fontColor=#000000;labelBackgroundColor=#FFFFFF;" vertex="1" parent="69">
                    <mxGeometry width="120" height="45" as="geometry">
                        <mxRectangle width="120" height="45" as="alternateBounds"/>
                    </mxGeometry>
                </mxCell>
                <mxCell id="71" value="BigAuto" style="shape=partialRectangle;html=1;whiteSpace=wrap;connectable=1;overflow=hidden;fillColor=none;top=0;left=0;bottom=0;right=0;pointerEvents=1;hachureGap=4;fontFamily=Verdana;fontSize=12;rounded=0;movable=1;resizable=1;rotatable=1;deletable=1;editable=1;locked=0;fontColor=#000000;verticalAlign=middle;labelBackgroundColor=#FFFFFF;" vertex="1" parent="69">
                    <mxGeometry x="120" width="120" height="45" as="geometry">
                        <mxRectangle width="120" height="45" as="alternateBounds"/>
                    </mxGeometry>
                </mxCell>
                <mxCell id="72" value="" style="shape=tableRow;horizontal=0;startSize=0;swimlaneHead=0;swimlaneBody=0;top=0;left=0;bottom=0;right=0;collapsible=0;dropTarget=0;fillColor=none;points=[[0,0.5],[1,0.5]];portConstraint=eastwest;hachureGap=4;fontFamily=Verdana;fontSize=12;html=0;rounded=0;movable=1;resizable=1;rotatable=1;deletable=1;editable=1;connectable=1;locked=0;verticalAlign=middle;fontColor=#000000;labelBackgroundColor=#FFFFFF;" vertex="1" parent="65">
                    <mxGeometry y="90" width="240" height="45" as="geometry"/>
                </mxCell>
                <mxCell id="73" value="owner" style="shape=partialRectangle;html=1;whiteSpace=wrap;connectable=1;overflow=hidden;fillColor=none;top=0;left=0;bottom=0;right=0;pointerEvents=1;hachureGap=4;fontFamily=Verdana;fontSize=12;rounded=0;movable=1;resizable=1;rotatable=1;deletable=1;editable=1;locked=0;verticalAlign=middle;fontColor=#000000;labelBackgroundColor=#FFFFFF;" vertex="1" parent="72">
                    <mxGeometry width="120" height="45" as="geometry">
                        <mxRectangle width="120" height="45" as="alternateBounds"/>
                    </mxGeometry>
                </mxCell>
                <mxCell id="74" value="OneToOne" style="shape=partialRectangle;html=1;whiteSpace=wrap;connectable=1;overflow=hidden;fillColor=none;top=0;left=0;bottom=0;right=0;pointerEvents=1;hachureGap=4;fontFamily=Verdana;fontSize=12;rounded=0;movable=1;resizable=1;rotatable=1;deletable=1;editable=1;locked=0;fontColor=#000000;verticalAlign=middle;labelBackgroundColor=#FFFFFF;" vertex="1" parent="72">
                    <mxGeometry x="120" width="120" height="45" as="geometry">
                        <mxRectangle width="120" height="45" as="alternateBounds"/>
                    </mxGeometry>
                </mxCell>
                <mxCell id="75" value="" style="shape=tableRow;horizontal=0;startSize=0;swimlaneHead=0;swimlaneBody=0;top=0;left=0;bottom=0;right=0;collapsible=0;dropTarget=0;fillColor=none;points=[[0,0.5],[1,0.5]];portConstraint=eastwest;hachureGap=4;fontFamily=Verdana;fontSize=12;html=0;rounded=0;movable=1;resizable=1;rotatable=1;deletable=1;editable=1;connectable=1;locked=0;verticalAlign=middle;fontColor=#000000;labelBackgroundColor=#FFFFFF;" vertex="1" parent="65">
                    <mxGeometry y="135" width="240" height="45" as="geometry"/>
                </mxCell>
                <mxCell id="76" value="created_at" style="shape=partialRectangle;html=1;whiteSpace=wrap;connectable=1;overflow=hidden;fillColor=none;top=0;left=0;bottom=0;right=0;pointerEvents=1;hachureGap=4;fontFamily=Verdana;fontSize=12;rounded=0;movable=1;resizable=1;rotatable=1;deletable=1;editable=1;locked=0;verticalAlign=middle;fontColor=#000000;labelBackgroundColor=#FFFFFF;" vertex="1" parent="75">
                    <mxGeometry width="120" height="45" as="geometry">
                        <mxRectangle width="120" height="45" as="alternateBounds"/>
                    </mxGeometry>
                </mxCell>
                <mxCell id="77" value="&lt;span style=&quot;font-size: 12px;&quot;&gt;&lt;span style=&quot;font-size: 12px; font-style: normal; font-variant-ligatures: normal; font-variant-caps: normal; font-weight: 400; letter-spacing: normal; orphans: 2; text-align: center; text-indent: 0px; text-transform: none; widows: 2; word-spacing: 0px; -webkit-text-stroke-width: 0px; text-decoration-thickness: initial; text-decoration-style: initial; text-decoration-color: initial; float: none; display: inline !important;&quot;&gt;DateTime&lt;/span&gt;&lt;br style=&quot;font-size: 12px;&quot;&gt;&lt;/span&gt;" style="shape=partialRectangle;html=1;whiteSpace=wrap;connectable=1;overflow=hidden;fillColor=none;top=0;left=0;bottom=0;right=0;pointerEvents=1;hachureGap=4;fontFamily=Verdana;fontSize=12;rounded=0;movable=1;resizable=1;rotatable=1;deletable=1;editable=1;locked=0;fontColor=#000000;verticalAlign=middle;labelBackgroundColor=#FFFFFF;" vertex="1" parent="75">
                    <mxGeometry x="120" width="120" height="45" as="geometry">
                        <mxRectangle width="120" height="45" as="alternateBounds"/>
                    </mxGeometry>
                </mxCell>
                <mxCell id="78" value="" style="shape=tableRow;horizontal=0;startSize=0;swimlaneHead=0;swimlaneBody=0;top=0;left=0;bottom=0;right=0;collapsible=0;dropTarget=0;fillColor=none;points=[[0,0.5],[1,0.5]];portConstraint=eastwest;hachureGap=4;fontFamily=Verdana;fontSize=12;html=0;rounded=0;movable=1;resizable=1;rotatable=1;deletable=1;editable=1;connectable=1;locked=0;verticalAlign=middle;fontColor=#000000;labelBackgroundColor=#FFFFFF;" vertex="1" parent="65">
                    <mxGeometry y="180" width="240" height="45" as="geometry"/>
                </mxCell>
                <mxCell id="79" value="updated_at" style="shape=partialRectangle;html=1;whiteSpace=wrap;connectable=1;overflow=hidden;fillColor=none;top=0;left=0;bottom=0;right=0;pointerEvents=1;hachureGap=4;fontFamily=Verdana;fontSize=12;rounded=0;movable=1;resizable=1;rotatable=1;deletable=1;editable=1;locked=0;verticalAlign=middle;fontColor=#000000;labelBackgroundColor=#FFFFFF;" vertex="1" parent="78">
                    <mxGeometry width="120" height="45" as="geometry">
                        <mxRectangle width="120" height="45" as="alternateBounds"/>
                    </mxGeometry>
                </mxCell>
                <mxCell id="80" value="DateTime" style="shape=partialRectangle;html=1;whiteSpace=wrap;connectable=1;overflow=hidden;fillColor=none;top=0;left=0;bottom=0;right=0;pointerEvents=1;hachureGap=4;fontFamily=Verdana;fontSize=12;rounded=0;movable=1;resizable=1;rotatable=1;deletable=1;editable=1;locked=0;fontColor=#000000;verticalAlign=middle;labelBackgroundColor=#FFFFFF;" vertex="1" parent="78">
                    <mxGeometry x="120" width="120" height="45" as="geometry">
                        <mxRectangle width="120" height="45" as="alternateBounds"/>
                    </mxGeometry>
                </mxCell>
                <mxCell id="81" value="" style="shape=tableRow;horizontal=0;startSize=0;swimlaneHead=0;swimlaneBody=0;top=0;left=0;bottom=0;right=0;collapsible=0;dropTarget=0;fillColor=none;points=[[0,0.5],[1,0.5]];portConstraint=eastwest;hachureGap=4;fontFamily=Verdana;fontSize=12;html=0;rounded=0;movable=1;resizable=1;rotatable=1;deletable=1;editable=1;connectable=1;locked=0;verticalAlign=middle;fontColor=#000000;labelBackgroundColor=#FFFFFF;" vertex="1" parent="65">
                    <mxGeometry y="225" width="240" height="45" as="geometry"/>
                </mxCell>
                <mxCell id="82" value="name" style="shape=partialRectangle;html=1;whiteSpace=wrap;connectable=1;overflow=hidden;fillColor=none;top=0;left=0;bottom=0;right=0;pointerEvents=1;hachureGap=4;fontFamily=Verdana;fontSize=12;rounded=0;movable=1;resizable=1;rotatable=1;deletable=1;editable=1;locked=0;verticalAlign=middle;fontColor=#000000;labelBackgroundColor=#FFFFFF;" vertex="1" parent="81">
                    <mxGeometry width="120" height="45" as="geometry">
                        <mxRectangle width="120" height="45" as="alternateBounds"/>
                    </mxGeometry>
                </mxCell>
                <mxCell id="83" value="Char" style="shape=partialRectangle;html=1;whiteSpace=wrap;connectable=1;overflow=hidden;fillColor=none;top=0;left=0;bottom=0;right=0;pointerEvents=1;hachureGap=4;fontFamily=Verdana;fontSize=12;rounded=0;movable=1;resizable=1;rotatable=1;deletable=1;editable=1;locked=0;fontColor=#000000;verticalAlign=middle;labelBackgroundColor=#FFFFFF;" vertex="1" parent="81">
                    <mxGeometry x="120" width="120" height="45" as="geometry">
                        <mxRectangle width="120" height="45" as="alternateBounds"/>
                    </mxGeometry>
                </mxCell>
                <mxCell id="84" value="" style="shape=tableRow;horizontal=0;startSize=0;swimlaneHead=0;swimlaneBody=0;top=0;left=0;bottom=0;right=0;collapsible=0;dropTarget=0;fillColor=none;points=[[0,0.5],[1,0.5]];portConstraint=eastwest;hachureGap=4;fontFamily=Verdana;fontSize=12;html=0;rounded=0;movable=1;resizable=1;rotatable=1;deletable=1;editable=1;connectable=1;locked=0;verticalAlign=middle;fontColor=#000000;labelBackgroundColor=#FFFFFF;" vertex="1" parent="65">
                    <mxGeometry y="270" width="240" height="45" as="geometry"/>
                </mxCell>
                <mxCell id="85" value="content" style="shape=partialRectangle;html=1;whiteSpace=wrap;connectable=1;overflow=hidden;fillColor=none;top=0;left=0;bottom=0;right=0;pointerEvents=1;hachureGap=4;fontFamily=Verdana;fontSize=12;rounded=0;movable=1;resizable=1;rotatable=1;deletable=1;editable=1;locked=0;verticalAlign=middle;fontColor=#000000;labelBackgroundColor=#FFFFFF;" vertex="1" parent="84">
                    <mxGeometry width="120" height="45" as="geometry">
                        <mxRectangle width="120" height="45" as="alternateBounds"/>
                    </mxGeometry>
                </mxCell>
                <mxCell id="86" value="Text" style="shape=partialRectangle;html=1;whiteSpace=wrap;connectable=1;overflow=hidden;fillColor=none;top=0;left=0;bottom=0;right=0;pointerEvents=1;hachureGap=4;fontFamily=Verdana;fontSize=12;rounded=0;movable=1;resizable=1;rotatable=1;deletable=1;editable=1;locked=0;fontColor=#000000;verticalAlign=middle;labelBackgroundColor=#FFFFFF;" vertex="1" parent="84">
                    <mxGeometry x="120" width="120" height="45" as="geometry">
                        <mxRectangle width="120" height="45" as="alternateBounds"/>
                    </mxGeometry>
                </mxCell>
                <mxCell id="87" value="" style="shape=tableRow;horizontal=0;startSize=0;swimlaneHead=0;swimlaneBody=0;top=0;left=0;bottom=0;right=0;collapsible=0;dropTarget=0;fillColor=none;points=[[0,0.5],[1,0.5]];portConstraint=eastwest;hachureGap=4;fontFamily=Verdana;fontSize=12;html=0;rounded=0;movable=1;resizable=1;rotatable=1;deletable=1;editable=1;connectable=1;locked=0;verticalAlign=middle;fontColor=#000000;labelBackgroundColor=#FFFFFF;" vertex="1" parent="65">
                    <mxGeometry y="315" width="240" height="45" as="geometry"/>
                </mxCell>
                <mxCell id="88" value="image" style="shape=partialRectangle;html=1;whiteSpace=wrap;connectable=1;overflow=hidden;fillColor=none;top=0;left=0;bottom=0;right=0;pointerEvents=1;hachureGap=4;fontFamily=Verdana;fontSize=12;rounded=0;movable=1;resizable=1;rotatable=1;deletable=1;editable=1;locked=0;verticalAlign=middle;fontColor=#000000;labelBackgroundColor=#FFFFFF;" vertex="1" parent="87">
                    <mxGeometry width="120" height="45" as="geometry">
                        <mxRectangle width="120" height="45" as="alternateBounds"/>
                    </mxGeometry>
                </mxCell>
                <mxCell id="89" value="Image" style="shape=partialRectangle;html=1;whiteSpace=wrap;connectable=1;overflow=hidden;fillColor=none;top=0;left=0;bottom=0;right=0;pointerEvents=1;hachureGap=4;fontFamily=Verdana;fontSize=12;rounded=0;movable=1;resizable=1;rotatable=1;deletable=1;editable=1;locked=0;fontColor=#000000;verticalAlign=middle;labelBackgroundColor=#FFFFFF;" vertex="1" parent="87">
                    <mxGeometry x="120" width="120" height="45" as="geometry">
                        <mxRectangle width="120" height="45" as="alternateBounds"/>
                    </mxGeometry>
                </mxCell>
                <mxCell id="109" value="" style="edgeStyle=orthogonalEdgeStyle;fontSize=12;html=1;endArrow=ERmandOne;startArrow=ERmandOne;strokeWidth=2;entryX=0;entryY=0.5;entryDx=0;entryDy=0;exitX=1;exitY=0.5;exitDx=0;exitDy=0;" edge="1" parent="1" source="4" target="116">
                    <mxGeometry width="100" height="100" relative="1" as="geometry">
                        <mxPoint x="1110" y="100" as="sourcePoint"/>
                        <mxPoint x="1220" y="130" as="targetPoint"/>
                    </mxGeometry>
                </mxCell>
                <mxCell id="113" value="" style="edgeStyle=orthogonalEdgeStyle;fontSize=12;html=1;endArrow=ERmany;strokeWidth=2;exitX=0.552;exitY=0;exitDx=0;exitDy=0;exitPerimeter=0;entryX=0.38;entryY=-0.015;entryDx=0;entryDy=0;entryPerimeter=0;" edge="1" parent="1" source="17" target="30">
                    <mxGeometry width="100" height="100" relative="1" as="geometry">
                        <mxPoint x="-160" y="330" as="sourcePoint"/>
                        <mxPoint x="810" y="110" as="targetPoint"/>
                        <Array as="points">
                            <mxPoint x="697" y="240"/>
                            <mxPoint x="1002" y="240"/>
                        </Array>
                    </mxGeometry>
                </mxCell>
                <mxCell id="114" value="" style="edgeStyle=orthogonalEdgeStyle;fontSize=12;html=1;endArrow=ERmany;strokeWidth=2;exitX=0.634;exitY=0.995;exitDx=0;exitDy=0;exitPerimeter=0;entryX=0.531;entryY=0;entryDx=0;entryDy=0;entryPerimeter=0;" edge="1" parent="1" source="14" target="30">
                    <mxGeometry width="100" height="100" relative="1" as="geometry">
                        <mxPoint x="1040" y="220" as="sourcePoint"/>
                        <mxPoint x="1060" y="280" as="targetPoint"/>
                    </mxGeometry>
                </mxCell>
            </root>
        </mxGraphModel>
    </diagram>
</mxfile>